<svg width="100" height="100" viewBox="0 0 100 100" fill="none" xmlns="http://www.w3.org/2000/svg">
<g clip-path="url(#clip0_18_2)">
<path d="M50 94.1176C35.5392 94.1176 23.0392 84.3137 23.0392 69.8039C23.0392 65.1961 26.2745 64.7059 26.2745 64.7059L30.3922 63.2353C38.2353 59.8039 48.5294 52.2549 48.5294 44.7059C48.5294 35.7843 44.9019 30.1961 44.9019 30.1961V15.6863C44.9019 7.2549 51.4706 0.686374 59.902 5.29413C66.7647 8.56863 70.9804 13.9216 70.9804 20.5882V29.2157C70.9804 31.6765 73.6275 31.1765 73.6275 31.1765L77.2549 31.1765C83.7353 31.1765 85.2941 36.2745 85.2941 36.2745C89.9042 40.1961 90.4903 43.7255 90.4903 43.7255C90.4064 60.1961 85.2941 70.4902 77.2549 77.2549C69.706 83.7843 60.7843 87.6471 50 94.1176Z" fill="#6B4623"/>
<path d="M50 94.1176C35.5392 94.1176 23.0392 84.3137 23.0392 69.8039C23.0392 65.1961 26.2745 64.7059 26.2745 64.7059L30.3922 63.2353C38.2353 59.8039 48.5294 52.2549 48.5294 44.7059C48.5294 35.7843 44.9019 30.1961 44.9019 30.1961V15.6863C44.9019 7.2549 51.4706 0.686374 59.902 5.29413C66.7647 8.56863 70.9804 13.9216 70.9804 20.5882V29.2157C70.9804 31.6765 73.6275 31.1765 73.6275 31.1765L77.2549 31.1765C83.7353 31.1765 85.2941 36.2745 85.2941 36.2745C89.9042 40.1961 90.4903 43.7255 90.4903 43.7255C90.4064 60.1961 85.2941 70.4902 77.2549 77.2549C69.706 83.7843 60.7843 87.6471 50 94.1176Z" stroke="#3B2F20" stroke-width="2"/>
<path d="M59.5294 91.0392C47.7255 94.1176 23.0392 84.3137 23.0392 69.8039C23.0392 65.1961 26.2745 64.7059 26.2745 64.7059L30.3922 63.2353C38.2353 59.8039 48.5294 52.2549 48.5294 44.7059C48.5294 35.7843 44.9019 30.1961 44.9019 30.1961V15.6863C44.9019 7.2549 51.4706 0.686374 59.902 5.29413C66.7647 8.56863 70.9804 13.9216 70.9804 20.5882V29.2157C70.9804 31.6765 73.6275 31.1765 73.6275 31.1765L77.2549 31.1765C83.7353 31.1765 85.2941 36.2745 85.2941 36.2745C89.9042 40.1961 90.4903 43.7255 90.4903 43.7255C90.4064 60.1961 85.2941 70.4902 77.2549 77.2549C69.706 83.7843 60.7843 87.6471 59.5294 91.0392Z" fill="#8B4A21"/>
<svg width="22" height="34" viewBox="0 0 22 34" fill="none" xmlns="http://www.w3.org/2000/svg">
<svg x="45" y="0" width="22" height="34" viewBox="0 0 22 34" fill="none" xmlns="http://www.w3.org/2000/svg">
<path d="M10 34C10 33.5 9.5 33 9 33H1.5C4.25 31.25 6 26.5 6 26.5L8 25.75C6 23.5 5 20.25 5 20.25V13.2C5 7.8 7.1 3.1 10 3.1C12.9 3.1 15 7.8 15 13.2V23.8C15 26.25 16 26.25 16 26.25L17.5 26.25C18 26.25 18 26.75 18 26.75C18 27 21 28.5 21 34S" fill="#A94201"/>
<svg width="36" height="34" viewBox="0 0 36 34" fill="none" xmlns="http://www.w3.org/2000/svg">
<svg x="44" y="0" width="36" height="34" viewBox="0 0 36 34" fill="none" xmlns="http://www.w3.org/2000/svg">
<path d="M24 34C17 34 9.5 33 9 33H7V16.25C4 12.5 3.5 9.5 3.5 9.5C7 5 10 4.25 16.5 2C23 3.25 23.5 7.5 23.5 7.5C24.5 10.5 26 12 28 13C30 13.25 30.5 14 30.5 14.5C32 14.5 32.5 16.25 32.5 20.25S30 28 17 31S" fill="#92F361"/>
<svg width="38" height="32" viewBox="0 0 38 32" fill="none" xmlns="http://www.w3.org/2000/svg">
<svg x="44" y="0" width="38" height="32" viewBox="0 0 38 32" fill="none" xmlns="http://www.w3.org/2000/svg">
<path d="M24 31.5C18 31.5 10.5 31 9 31H7V15C7.5 11 8.5 9 8.5 9C10 4.5 14 2.5 17 2C28 3.5 28 9 28 9C30 12 30 13 32 14C34 14 35 15 35 17S34 24 29 28C24 32 24 31.5 24 31.5Z" fill="#69AA12" stroke="#3B2F20" stroke-width="2"/>
</svg>
</svg>
</svg>
</svg>
</g>
<g clip-path="url(#clip1_18_2)">
<svg width="80" height="40" viewBox="0 0 80 40" fill="none" xmlns="http://www.w3.org/2000/svg">
<svg x="10" y="26" width="80" height="40" viewBox="0 0 80 40" fill="none" xmlns="http://www.w3.org/2000/svg">
<path d="M10 8C17 8 24 10.5 35 12.5C49 15.25 60.5 16 67 16C69.5 16 71 15.25 71 15.25C73.5 15.75 75.5 16 77 17V22C77 27 74 29.5 74 29.5C67 34 57 36.75 45 37.5C29 38.25 21 32 13 29.5C12 27.5 10 23.75 10 19V8Z" fill="#69AA12" stroke="#3B2F20" stroke-width="2"/>
</svg>
</svg>
</g>
<defs>
<clipPath id="clip0_18_2">
<rect width="100" height="100" fill="white"/>
</clipPath>
<clipPath id="clip1_18_2">
<rect x="10" y="26" width="80" height="40" fill="white"/>
</clipPath>
</defs>
</svg>